<?xml version="1.0" encoding="iso-8859-1"?>
<!-- Generator: Adobe Illustrator 17.0.0, SVG Export Plug-In . SVG Version: 6.00 Build 0)  -->
<!DOCTYPE svg PUBLIC "-//W3C//DTD SVG 1.1//EN" "http://www.w3.org/Graphics/SVG/1.1/DTD/svg11.dtd">
<svg version="1.1" id="_x32__1_" xmlns="http://www.w3.org/2000/svg" xmlns:xlink="http://www.w3.org/1999/xlink" x="0px" y="0px"
	 width="720px" height="120px" viewBox="0 0 720 120" enable-background="new 0 0 720 120" xml:space="preserve">
<g>
	<g>
		<circle fill="#34AC62" cx="60" cy="60" r="60"/>
	</g>
	<g opacity="0.2">
		<g>
			<g>
				<path fill="#231F20" d="M79.6,82.5c-1.3,0-2.5-0.6-3.2-1.8c-1.1-1.8-0.5-4.1,1.2-5.2l19-11.7c0,0,0-0.1,0-0.1s0-0.1,0-0.1
					l-19-11.7c-1.8-1.1-2.3-3.4-1.2-5.2c1.1-1.8,3.4-2.3,5.2-1.2l19.9,12.3l0.3,0.3c1.5,1.5,2.3,3.5,2.3,5.6c0,2.1-0.8,4.1-2.3,5.6
					l-0.3,0.3L81.6,81.9C81,82.3,80.3,82.5,79.6,82.5z"/>
			</g>
		</g>
		<g>
			<g>
				<path fill="#231F20" d="M40.4,82.5c-0.7,0-1.4-0.2-2-0.6L18.5,69.7l-0.3-0.3c-1.5-1.5-2.3-3.5-2.3-5.6c0-2.1,0.8-4.1,2.3-5.6
					l0.3-0.3l19.9-12.3c1.8-1.1,4.1-0.5,5.2,1.2c1.1,1.8,0.5,4.1-1.2,5.2l-19,11.7c0,0,0,0.1,0,0.1s0,0.1,0,0.1l19,11.7
					c1.8,1.1,2.3,3.4,1.2,5.2C42.9,81.9,41.6,82.5,40.4,82.5z"/>
			</g>
		</g>
	</g>
	<g opacity="0.2">
		<g>
			<path fill="#231F20" d="M47.8,99.4c-0.4,0-0.9-0.1-1.3-0.2c-1.9-0.7-2.9-2.9-2.2-4.8l24.4-63.8c0.7-1.9,2.9-2.9,4.8-2.2
				c1.9,0.7,2.9,2.9,2.2,4.8L51.3,97C50.7,98.5,49.3,99.4,47.8,99.4z"/>
		</g>
	</g>
	<g>
		<g>
			<path fill="#FFFFFF" d="M79.6,78.8c-1.3,0-2.5-0.6-3.2-1.8c-1.1-1.8-0.5-4.1,1.2-5.2l19-11.7c0-0.1,0-0.1,0-0.2l-19-11.7
				c-1.8-1.1-2.3-3.4-1.2-5.2c1.1-1.8,3.4-2.3,5.2-1.2l19.9,12.3l0.3,0.3c3.1,3.1,3.1,8.1,0,11.2l-0.3,0.3L81.6,78.2
				C81,78.6,80.3,78.8,79.6,78.8z"/>
		</g>
		<g>
			<path fill="#FFFFFF" d="M40.4,78.8c-0.7,0-1.4-0.2-2-0.6L18.5,65.9l-0.3-0.3c-3.1-3.1-3.1-8.1,0-11.2l0.3-0.3l19.9-12.3
				c1.8-1.1,4.1-0.5,5.2,1.2c1.1,1.8,0.5,4.1-1.2,5.2l-19,11.7c0,0.1,0,0.1,0,0.2l19,11.7c1.8,1.1,2.3,3.4,1.2,5.2
				C42.9,78.1,41.6,78.8,40.4,78.8z"/>
		</g>
	</g>
	<g>
		<path fill="#FFFFFF" d="M47.8,95.6c-0.4,0-0.9-0.1-1.3-0.2c-1.9-0.7-2.9-2.9-2.2-4.8l24.4-63.8c0.7-1.9,2.9-2.9,4.8-2.2
			c1.9,0.7,2.9,2.9,2.2,4.8L51.3,93.2C50.7,94.7,49.3,95.6,47.8,95.6z"/>
	</g>
</g>
<g>
	<g>
		<circle fill="#E27C2D" cx="180" cy="60" r="60"/>
	</g>
	<g opacity="0.2">
		<g>
			<path fill="#231F20" d="M202.5,93.8c0,4.1-3.4,7.5-7.5,7.5h-30c-4.1,0-7.5-3.4-7.5-7.5v-60c0-4.1,3.4-7.5,7.5-7.5h30
				c4.1,0,7.5,3.4,7.5,7.5V93.8z"/>
		</g>
	</g>
	<g>
		<g>
			<path fill="#505E72" d="M165,94.7c-2.6,0-4.7-2.1-4.7-4.7V30c0-2.6,2.1-4.7,4.7-4.7h30c2.6,0,4.7,2.1,4.7,4.7v60
				c0,2.6-2.1,4.7-4.7,4.7H165z"/>
		</g>
		<g>
			<path fill="#FFFFFF" d="M195,28.1c1,0,1.9,0.8,1.9,1.9v60c0,1-0.8,1.9-1.9,1.9h-30c-1,0-1.9-0.8-1.9-1.9V30c0-1,0.8-1.9,1.9-1.9
				H195 M195,22.5h-30c-4.1,0-7.5,3.4-7.5,7.5v60c0,4.1,3.4,7.5,7.5,7.5h30c4.1,0,7.5-3.4,7.5-7.5V30
				C202.5,25.9,199.1,22.5,195,22.5L195,22.5z"/>
		</g>
	</g>
	<g opacity="0.2">
		<polygon fill="#FFFFFF" points="169.2,25.3 198.8,96.8 198.8,25.3 		"/>
	</g>
	<g>
		<polygon fill="#FFFFFF" points="195,97.5 165,97.5 157.5,82.5 202.5,82.5 		"/>
	</g>
	<g>
		<circle fill="#E0E0D1" cx="180" cy="90" r="3.8"/>
	</g>
</g>
<g>
	<g>
		<circle fill="#BC372F" cx="300" cy="60" r="60"/>
	</g>
	<g opacity="0.2">
		<path fill="#231F20" d="M332.7,36.8L307,22c-3.7-2.2-10.2-2.2-13.9,0l-25.7,14.8c-3.8,2.2-7,7.6-7,12.1v29.7c0,4.4,3.1,9.8,7,12.1
			l25.7,14.8c1.9,1.1,4.3,1.7,7,1.7s5.1-0.6,7-1.7l25.7-14.8c3.8-2.2,7-7.6,7-12.1V48.9C339.6,44.5,336.5,39.1,332.7,36.8z"/>
	</g>
	<g>
		<g>
			<path fill="#E0E0D1" d="M306.5,19.1c-3.6-2.1-9.4-2.1-13,0l-25.7,14.8c-3.6,2.1-6.5,7.1-6.5,11.3v29.7c0,4.1,2.9,9.2,6.5,11.2
				l25.7,14.8c3.6,2.1,9.4,2.1,13,0l25.7-14.8c3.6-2.1,6.5-7.1,6.5-11.2V45.2c0-4.1-2.9-9.2-6.5-11.3L306.5,19.1z"/>
			<path fill="#E0E0D1" d="M300,103.4c-2.6,0-5.1-0.6-7-1.7l-25.7-14.8c-3.8-2.2-7-7.6-7-12.1V45.2c0-4.4,3.1-9.8,7-12.1L293,18.3
				c3.7-2.2,10.2-2.2,13.9,0l25.7,14.8c3.8,2.2,7,7.6,7,12.1v29.7c0,4.4-3.1,9.8-7,12.1L307,101.7
				C305.1,102.8,302.6,103.4,300,103.4z M300,18.5c-2.3,0-4.4,0.5-6,1.4l-25.7,14.8c-3.3,1.9-6,6.7-6,10.4v29.7
				c0,3.8,2.8,8.6,6,10.4l25.7,14.8c3.2,1.8,8.9,1.8,12.1,0l25.7-14.8c3.3-1.9,6-6.7,6-10.4V45.2c0-3.8-2.8-8.6-6-10.4L306,19.9
				C304.4,19,302.3,18.5,300,18.5z"/>
		</g>
		<g>
			<path fill="#FFFFFF" d="M300,55.9c-2.1,0-4.1-0.5-5.6-1.3l-25.7-14.8c-1.1-0.6-1.7-1.4-1.7-2.1c0-0.7,0.6-1.5,1.7-2.1l25.7-14.8
				c1.4-0.8,3.5-1.3,5.6-1.3s4.1,0.5,5.6,1.3l25.7,14.8c1.1,0.6,1.7,1.4,1.7,2.1c0,0.7-0.6,1.5-1.7,2.1l-25.7,14.8
				C304.1,55.4,302.1,55.9,300,55.9z"/>
		</g>
		<g>
			<path fill="#FFFFFF" d="M296.1,99.9c-0.6,0-1.2-0.2-1.9-0.6l-25.7-14.8c-3-1.7-5.6-6.1-5.6-9.6V45.2c0-0.8,0.2-2.8,1.7-2.8
				c0.6,0,1.2,0.2,1.9,0.6l25.7,14.8c3,1.7,5.6,6.1,5.6,9.6v29.7c0,1-0.2,1.8-0.6,2.2C296.9,99.8,296.6,99.9,296.1,99.9L296.1,99.9z
				"/>
		</g>
		<g>
			<path fill="#FFFFFF" d="M303.6,99.9c-1.6,0-1.7-1.9-1.7-2.8V67.5c0-3.5,2.5-7.9,5.6-9.6L333.1,43c0.7-0.4,1.4-0.6,1.9-0.6
				c1.6,0,1.7,1.9,1.7,2.8v29.7c0,3.5-2.5,7.9-5.6,9.6l-25.7,14.8C304.8,99.7,304.2,99.9,303.6,99.9L303.6,99.9z"/>
		</g>
		<g>
			<path fill="#505E72" d="M300,40.3c-2.4,0-4.4-1.2-4.4-2.7s2-2.7,4.4-2.7s4.4,1.2,4.4,2.7S302.4,40.3,300,40.3z"/>
		</g>
		<g>
			<path fill="#505E72" d="M268.4,79.4c-1.4,0-2.7-1.8-2.7-3.9s1.2-3.9,2.7-3.9s2.7,1.8,2.7,3.9S269.8,79.4,268.4,79.4z"/>
		</g>
		<g>
			<path fill="#505E72" d="M330.7,79.4c-1.4,0-2.7-1.8-2.7-3.9s1.2-3.9,2.7-3.9s2.7,1.8,2.7,3.9S332.1,79.4,330.7,79.4z"/>
		</g>
		<g>
			<path fill="#505E72" d="M268.4,57.1c-1.4,0-2.7-1.8-2.7-3.9s1.2-3.9,2.7-3.9s2.7,1.8,2.7,3.9S269.8,57.1,268.4,57.1z"/>
		</g>
		<g>
			<path fill="#505E72" d="M290.5,71.5c-1.4,0-2.7-1.8-2.7-3.9s1.2-3.9,2.7-3.9s2.7,1.8,2.7,3.9S291.9,71.5,290.5,71.5z"/>
		</g>
		<g>
			<path fill="#505E72" d="M309.3,71.5c-1.4,0-2.7-1.8-2.7-3.9s1.2-3.9,2.7-3.9s2.7,1.8,2.7,3.9S310.7,71.5,309.3,71.5z"/>
		</g>
		<g>
			<path fill="#505E72" d="M290.5,92.1c-1.4,0-2.7-1.8-2.7-3.9s1.2-3.9,2.7-3.9s2.7,1.8,2.7,3.9S291.9,92.1,290.5,92.1z"/>
		</g>
	</g>
</g>
<g>
	<g>
		<circle fill="#EEC12A" cx="420" cy="60" r="60"/>
	</g>
	<g opacity="0.2">
		<path fill="#231F20" d="M450,93.8c0,4.1-3.4,7.5-7.5,7.5h-45c-4.1,0-7.5-3.4-7.5-7.5v-60c0-4.1,3.4-7.5,7.5-7.5h45
			c4.1,0,7.5,3.4,7.5,7.5V93.8z"/>
	</g>
	<g>
		<path fill="#505E72" d="M450,90c0,4.1-3.4,7.5-7.5,7.5h-45c-4.1,0-7.5-3.4-7.5-7.5V30c0-4.1,3.4-7.5,7.5-7.5h45
			c4.1,0,7.5,3.4,7.5,7.5V90z"/>
	</g>
	<g opacity="0.2">
		<g>
			<path fill="#231F20" d="M425.6,26.2V41c0,0.5,0.3,0.9,0.8,1.1c0.2,0.1,0.3,0.1,0.5,0.1c0.3,0,0.6-0.1,0.9-0.4l5.4-5.3l5.4,5.3
				c0.2,0.2,0.6,0.4,0.9,0.4c0.2,0,0.3,0,0.5-0.1c0.5-0.2,0.8-0.6,0.8-1.1V26.2H425.6z"/>
		</g>
	</g>
	<g>
		<g>
			<path fill="#C45B5D" d="M425.6,22.5v14.7c0,0.5,0.3,0.9,0.8,1.1c0.2,0.1,0.3,0.1,0.5,0.1c0.3,0,0.6-0.1,0.9-0.4l5.4-5.3l5.4,5.3
				c0.2,0.2,0.6,0.4,0.9,0.4c0.2,0,0.3,0,0.5-0.1c0.5-0.2,0.8-0.6,0.8-1.1V22.5H425.6z"/>
		</g>
	</g>
	<g>
		<rect x="397.5" y="22.5" fill="#E0E0D1" width="5.6" height="75"/>
	</g>
</g>
<g>
	<g>
		<circle fill="#985BB3" cx="540" cy="60" r="60"/>
	</g>
	<g opacity="0.2">
		<path fill="#231F20" d="M540.2,74.4c-2.9,2.9-11.4,23.5-11.4,23.5c-1.2,2.3,0.6,3.9,4.9,1.8l15.2-8.3c8.2-4.6,9.8-5.8,9.7-15.1
			l-1.5-11c-0.5-3.8-3.3-4.4-6.3-1.5L540.2,74.4z"/>
	</g>
	<g opacity="0.2">
		<path fill="#231F20" d="M530.8,65c-2.9,2.9-23.5,11.4-23.5,11.4c-2.3,1.2-3.9-0.6-1.8-4.9l8.3-15.2c4.6-8.2,5.8-9.8,15.1-9.7
			l11,1.5c3.8,0.5,4.4,3.3,1.5,6.3L530.8,65z"/>
	</g>
	<g>
		<path fill="#C45B5D" d="M540.2,70.7c-2.9,2.9-11.4,23.5-11.4,23.5c-1.2,2.3,0.6,3.9,4.9,1.8l15.2-8.3c8.2-4.6,9.8-5.8,9.7-15.1
			l-1.5-11c-0.5-3.8-3.3-4.4-6.3-1.5L540.2,70.7z"/>
	</g>
	<g>
		<path fill="#C45B5D" d="M530.8,61.2c-2.9,2.9-23.5,11.4-23.5,11.4c-2.3,1.2-3.9-0.6-1.8-4.9l8.3-15.2c4.6-8.2,5.8-9.8,15.1-9.7
			l11,1.5c3.8,0.5,4.4,3.3,1.5,6.3L530.8,61.2z"/>
	</g>
	<g opacity="0.2">
		<path fill="#231F20" d="M519.8,74.1c9.5-9.5,17.5-6.6,17.5-6.6s2.9,8-6.6,17.5s-24.9,16.4-26.1,15.2
			C503.5,99.1,510.3,83.7,519.8,74.1z"/>
	</g>
	<g>
		<path fill="#DE9762" d="M519.8,70.4c9.5-9.5,17.5-6.6,17.5-6.6s2.9,8-6.6,17.5s-24.9,16.4-26.1,15.2
			C503.5,95.4,510.3,79.9,519.8,70.4z"/>
	</g>
	<g>
		<path fill="#F3CE8A" d="M527.8,62.4c9.5-9.5,17.5-6.6,17.5-6.6s2.9,8-6.6,17.5s-24.9,16.4-26.1,15.2
			C511.4,87.4,518.3,72,527.8,62.4z"/>
	</g>
	<g opacity="0.2">
		<path fill="#231F20" d="M561.8,69.5c-14.6,14.6-37.1,10.6-37.1,10.6s-4-22.4,10.6-37.1s36.8-16.2,39.7-13.3
			C577.9,32.6,576.5,54.9,561.8,69.5z"/>
	</g>
	<g>
		<path fill="#FFFFFF" d="M561.8,65.8c-14.6,14.6-37.1,10.6-37.1,10.6s-4-22.4,10.6-37.1s36.8-16.2,39.7-13.3
			C577.9,28.9,576.5,51.1,561.8,65.8z"/>
	</g>
	<g opacity="0.2">
		<path fill="#231F20" d="M519.4,88.1c-1.5,1.5-2.5,2.8-4,1.3l0,0c-1.5-1.5-0.1-2.5,1.3-4l18.6-23.9c1.5-1.5,7.8-2.8,9.3-1.3l0,0
			c1.5,1.5,0.1,7.8-1.3,9.3L519.4,88.1z"/>
	</g>
	<g>
		<path fill="#C45B5D" d="M519.4,84.4c-1.5,1.5-2.5,2.8-4,1.3l0,0c-1.5-1.5-0.1-2.5,1.3-4l18.6-23.9c1.5-1.5,7.8-2.8,9.3-1.3l0,0
			c1.5,1.5,0.1,7.8-1.3,9.3L519.4,84.4z"/>
	</g>
	<g opacity="0.2">
		<circle fill="#231F20" cx="554.3" cy="50.9" r="7.5"/>
	</g>
	<g opacity="0.2">
		<circle fill="#231F20" cx="564.9" cy="40.3" r="3.8"/>
	</g>
	<g>
		<circle fill="#505E72" cx="554.3" cy="47.2" r="7.5"/>
	</g>
	<g>
		<circle fill="#505E72" cx="564.9" cy="36.5" r="3.8"/>
	</g>
</g>
<g>
	<g>
		<circle fill="#3181B6" cx="660" cy="60" r="60"/>
	</g>
	<g opacity="0.2">
		<path fill="#231F20" d="M697.5,60c0-18.6-16.8-33.8-37.5-33.8S622.5,41.4,622.5,60c0,17.9,15.6,32.6,35.2,33.6
			c1.3,6.8,2.3,11.4,2.3,11.4s9.5-5.7,18.1-15.4C689.7,83.8,697.5,72.7,697.5,60z"/>
	</g>
	<g>
		<path fill="#FFFFFF" d="M691.9,54c0,28.1-31.9,47.2-31.9,47.2s-17.6-78.8,0-78.8S691.9,36.6,691.9,54z"/>
	</g>
	<g>
		<ellipse fill="#FFFFFF" cx="660" cy="56.2" rx="37.5" ry="33.8"/>
	</g>
	<g>
		<circle fill="#505E72" cx="660" cy="56.2" r="3.8"/>
	</g>
	<g>
		<circle fill="#505E72" cx="675" cy="56.2" r="3.8"/>
	</g>
	<g>
		<circle fill="#505E72" cx="645" cy="56.2" r="3.8"/>
	</g>
</g>
</svg>
